<svg width="24" height="24" viewBox="0 0 24 24" fill="none" xmlns="http://www.w3.org/2000/svg">
<path d="M9.09514 7.89096C8.89296 7.62475 8.81123 7.28808 8.79582 6.94429C8.78037 6.59961 8.83094 6.23487 8.90587 5.89893C9.05575 5.22701 9.30859 4.64671 9.36201 4.52795L9.36236 4.52717C9.37103 4.5082 9.38132 4.49002 9.3931 4.47284L9.39353 4.47222C9.57844 4.20543 9.88944 3.97706 10.2356 3.78484C10.5848 3.59093 10.9848 3.42572 11.3634 3.29125C12.1208 3.02222 12.8078 2.87096 12.8656 2.85838L12.8661 2.85826C12.9064 2.84965 12.9479 2.84776 12.9888 2.85265L12.989 2.85267C15.0542 3.10258 15.9191 4.85914 16.4296 6.28957L16.2884 6.33999L16.4296 6.28957L17.0057 7.90357L19.8853 13.6096C19.8855 13.6099 19.8856 13.6101 19.8857 13.6104C20.5915 14.9743 21.0157 16.4557 21.1346 17.9735L21.1347 17.9749C21.2046 18.9876 21.0364 19.7622 20.587 20.2304L20.5866 20.2309C20.4447 20.3774 20.2727 20.4935 20.0817 20.5719C19.8916 20.65 19.6867 20.6891 19.4802 20.687C17.5707 20.7262 14.0359 20.1088 13.3446 19.9845C11.6305 20.7319 9.77198 21.1287 7.88809 21.1493C7.88808 21.1493 7.88806 21.1493 7.88804 21.1493L7.88639 20.9994C6.21361 21.0183 4.56509 20.6161 3.10674 19.8331L9.09514 7.89096ZM9.09514 7.89096L9.27063 8.12213L9.27063 8.12214L9.27167 8.12347C9.57133 8.50908 9.96178 8.82087 10.4107 9.03388C10.8594 9.24678 11.354 9.35515 11.8543 9.35042M9.09514 7.89096L3.00455 14.6645C7.41379 11.6632 11.6496 13.9477 12.5997 14.5371C13.2116 14.2264 13.9568 14.1828 14.4461 14.1951C13.8767 12.2913 13.3432 10.0106 13.0755 8.81866L13.0315 8.87679C13.0314 8.87697 13.0312 8.87715 13.0311 8.87732C12.9388 9.00123 12.821 9.10506 12.6854 9.18262C12.5496 9.26028 12.3988 9.31002 12.2425 9.32898L12.2408 9.32918C12.1125 9.34328 11.9835 9.35037 11.8543 9.35042M16.0918 16.8318C16.1251 16.875 16.1391 16.929 16.1307 16.982C16.1223 17.035 16.0923 17.0827 16.0472 17.1145C16.0021 17.1464 15.9456 17.1599 15.8901 17.152C15.8346 17.1441 15.7846 17.1155 15.7511 17.0725L16.0918 16.8318ZM16.0918 16.8318C15.8105 16.4684 15.4784 15.5982 15.1464 14.5367L16.0918 16.8318ZM12.4601 15.1147L12.372 15.2361C12.4326 15.2801 12.5055 15.3042 12.58 15.3057C12.6545 15.3072 12.7281 15.2863 12.7905 15.2451C13.0911 15.0473 13.4902 14.9551 13.8705 14.919C14.1867 14.8889 14.4785 14.8985 14.6682 14.912C14.8268 15.4036 14.9864 15.8538 15.1423 16.2307C15.3069 16.6289 15.4718 16.9566 15.6325 17.1643L15.6327 17.1646C15.6908 17.2393 15.7762 17.2873 15.869 17.3005C15.9617 17.3137 16.0569 17.2914 16.1337 17.237C16.2108 17.1826 16.264 17.0997 16.2789 17.0054C16.2938 16.911 16.2686 16.8155 16.2106 16.7403L16.2105 16.74C16.0834 16.5758 15.9363 16.284 15.7772 15.8899C15.6196 15.4994 15.4549 15.0207 15.2896 14.4919L15.2884 14.4883L15.2883 14.4878C14.4524 11.8137 13.6173 7.91944 13.6055 7.86425L13.6054 7.86393C13.6037 7.85562 13.6014 7.84832 13.5991 7.84218C13.5665 7.6941 13.4719 7.56041 13.3377 7.43648C13.1974 7.30698 13.0024 7.17751 12.7543 7.0433L12.6829 7.17523L12.7543 7.0433C12.7132 7.02108 12.6682 7.00696 12.6219 7.00151C12.5757 6.99607 12.5287 6.99938 12.4836 7.0113C12.4386 7.02322 12.396 7.04361 12.3585 7.07158C12.321 7.09956 12.2892 7.13465 12.2652 7.17512C12.2412 7.2156 12.2256 7.26055 12.2196 7.30739L12.3683 7.32657L12.2196 7.30739C12.2135 7.35424 12.2172 7.40174 12.2304 7.44706L12.3744 7.4053L12.2304 7.44707C12.2435 7.49238 12.2657 7.53436 12.2954 7.57073C12.3252 7.60707 12.3617 7.63706 12.4028 7.65929L12.4025 7.65986L12.4154 7.66536C12.5741 7.73292 12.7167 7.82888 12.8359 7.94731L12.4482 8.4596L12.4482 8.45959L12.4468 8.46142C12.4139 8.50628 12.3713 8.54462 12.3213 8.57369C12.2714 8.60271 12.2155 8.62174 12.1569 8.62933C11.7202 8.68306 11.2766 8.62521 10.8713 8.46192C10.4664 8.29875 10.1148 8.03635 9.85175 7.70219L9.67702 7.47203L9.677 7.47201C9.58382 7.34931 9.53206 7.16722 9.52053 6.93572C9.50911 6.70631 9.53798 6.44412 9.59062 6.17696C9.69407 5.65193 9.88483 5.12968 10.0108 4.84239C10.114 4.70642 10.295 4.56599 10.5351 4.42802C10.7796 4.28758 11.0726 4.15685 11.377 4.04013C11.9714 3.81224 12.5966 3.64257 12.961 3.55994C14.5475 3.78383 15.2527 5.13849 15.7462 6.52084L16.3298 8.15609C16.3298 8.15611 16.3298 8.15613 16.3298 8.15614C16.3324 8.1634 16.3353 8.1698 16.3381 8.17528C16.3402 8.18146 16.343 8.18841 16.3467 8.19579L16.3468 8.19603L19.2366 13.922L19.2373 13.9234C19.9013 15.2053 20.3003 16.597 20.4127 18.0226L3.03928 15.0706C3.05542 15.0923 3.07586 15.1107 3.09944 15.1248C3.12301 15.1389 3.14927 15.1484 3.1767 15.1528L3.15292 15.3009C3.15292 15.3009 3.15292 15.3009 3.15292 15.3009C3.19893 15.3083 3.24599 15.3069 3.2915 15.2969C3.33703 15.2869 3.38039 15.2684 3.41905 15.2421L3.41907 15.2421C7.97232 12.1429 12.1956 15.1092 12.3725 15.2365L12.4601 15.1147ZM12.4601 15.1147C12.4956 15.1404 12.5386 15.1548 12.5831 15.1557C12.6277 15.1567 12.6713 15.1441 12.7079 15.1198C13.3688 14.685 14.4185 14.7372 14.7804 14.7707L12.4601 15.1147ZM11.8543 9.35042C11.8541 9.35042 11.8539 9.35042 11.8536 9.35042L11.8536 9.20042M11.8543 9.35042C11.8546 9.35041 11.8548 9.35041 11.8551 9.35041L11.8536 9.20042M11.8536 9.20042C11.9775 9.2004 12.1013 9.1936 12.2244 9.18007L9.39011 8.03143C9.67507 8.39812 10.0468 8.69519 10.475 8.89837C10.9032 9.10154 11.3756 9.20504 11.8536 9.20042Z" fill="currentColor" stroke="currentColor" stroke-width="0.3"/>
</svg>
