<svg width="14" height="18" viewBox="0 0 14 18" fill="none" xmlns="http://www.w3.org/2000/svg">
    <path d="M11.8 6.11491H11V4.49586C11 2.26158 9.20798 0.448242 6.99998 0.448242C4.79198 0.448242 2.99998 2.26158 2.99998 4.49586V6.11491H2.19998C1.31998 6.11491 0.599976 6.84348 0.599976 7.73396V15.8292C0.599976 16.7197 1.31998 17.4482 2.19998 17.4482H11.8C12.68 17.4482 13.4 16.7197 13.4 15.8292V7.73396C13.4 6.84348 12.68 6.11491 11.8 6.11491ZM6.99998 13.4006C6.11998 13.4006 5.39998 12.6721 5.39998 11.7816C5.39998 10.8911 6.11998 10.1625 6.99998 10.1625C7.87998 10.1625 8.59998 10.8911 8.59998 11.7816C8.59998 12.6721 7.87998 13.4006 6.99998 13.4006ZM9.47998 6.11491H4.51998V4.49586C4.51998 3.11158 5.63198 1.98634 6.99998 1.98634C8.36798 1.98634 9.47998 3.11158 9.47998 4.49586V6.11491Z" fill="currentColor"/>
</svg>
