<svg width="20" height="20" viewBox="0 0 20 20" fill="none" xmlns="http://www.w3.org/2000/svg">
    <g stroke="currentColor">
<path d="M12.2677 10.6123C12.2426 10.3898 12.1701 10.1758 12.0554 9.98587C11.911 9.74874 11.7216 9.54446 11.4986 9.38543M12.2677 10.6123L10.7296 10.5343C10.6725 10.4948 10.6139 10.458 10.5538 10.4241V10.1915H9.97871V10.0824V10.0308V9.63559L9.71105 9.52056M12.2677 10.6123C12.2887 10.7936 12.3001 10.9759 12.3019 11.1584L12.2677 10.6123ZM11.4986 9.38543C11.1721 9.15694 10.8078 8.99267 10.4238 8.90083L10.1728 8.83227M11.4986 9.38543L11.1546 9.87703C11.1539 9.87649 11.1531 9.87595 11.1523 9.87541M11.4986 9.38543L11.1502 9.87388C11.1509 9.87439 11.1516 9.8749 11.1523 9.87541M10.1728 8.83227L9.98347 8.78323L9.98429 9.35644L9.80178 9.32477L9.43645 9.26136M10.1728 8.83227L10.0224 9.41311L10.0186 9.41211M10.1728 8.83227L10.0148 9.41107L10.0186 9.41211M9.43645 9.26136L9.34463 9.23758V8.86578V8.77317V8.64321L8.78327 8.64401L8.78292 8.39577C8.76604 8.38403 8.74937 8.37194 8.73292 8.35948C8.66443 8.2966 8.61073 8.21833 8.57592 8.13065C8.54112 8.04297 8.52613 7.9482 8.53211 7.8536M9.43645 9.26136L9.79421 9.35401L10.0186 9.41211M9.43645 9.26136L9.28067 9.23432C8.95012 9.17695 8.63865 9.04064 8.37079 8.83788L8.3481 8.82071L8.32714 8.80146C8.19104 8.67651 8.08591 8.52247 8.01825 8.35202C7.954 8.19016 7.92476 8.01665 7.93187 7.84322M8.53211 7.8536C8.52891 7.73057 8.55312 7.60843 8.60285 7.49665C8.645 7.40426 8.7059 7.32247 8.7813 7.25682L8.78125 7.22524L8.4237 6.80098C8.37985 6.8292 8.33718 6.85963 8.29585 6.89217M8.53211 7.8536L7.93231 7.86917C7.93208 7.86052 7.93194 7.85187 7.93187 7.84322M8.53211 7.8536L7.9333 7.81577C7.93272 7.82492 7.93224 7.83407 7.93187 7.84322M8.29585 6.89217C8.33252 6.85332 8.37167 6.81663 8.41315 6.78239C8.51295 6.69875 8.62351 6.62904 8.7419 6.57532C8.74303 6.5748 8.74417 6.57429 8.7453 6.57378C8.78973 6.55376 8.83526 6.53599 8.88172 6.52057L8.89376 6.51658L8.8938 6.51671C9.04005 6.47159 9.1917 6.44685 9.34463 6.44323V6.44304L9.35391 6.44304C9.36239 6.44289 9.37087 6.4428 9.37936 6.44277L9.37954 6.44277L9.34235 6.43886V5.90155C9.07711 5.92236 8.8155 5.97857 8.56405 6.06883C8.30922 6.15831 8.07194 6.29443 7.86349 6.4707M8.29585 6.89217C8.19727 6.99664 8.11664 7.11683 8.05698 7.24759L8.05696 7.24757L8.05465 7.25277C7.97193 7.4387 7.93029 7.64024 7.93187 7.84322M8.29585 6.89217C8.28103 6.90384 8.26639 6.91579 8.25193 6.928M7.86349 6.4707C7.64779 6.6547 7.47545 6.88725 7.35959 7.15065C7.24373 7.41405 7.1874 7.70136 7.19488 7.99071C7.18559 8.27255 7.2403 8.5527 7.35462 8.80863M7.86349 6.4707L8.25288 6.92718C8.25256 6.92745 8.25224 6.92773 8.25193 6.928M7.86349 6.4707L8.25093 6.92884C8.25126 6.92856 8.25159 6.92828 8.25193 6.928M7.35462 8.80863C7.45843 9.01958 7.60472 9.20499 7.78363 9.35234M7.35462 8.80863L7.89296 8.54371C7.89459 8.54702 7.89623 8.55031 7.89789 8.55359M7.35462 8.80863L7.90245 8.56394C7.90092 8.56049 7.8994 8.55705 7.89789 8.55359M7.78363 9.35234C7.96795 9.50163 8.17348 9.62045 8.39291 9.70457M7.78363 9.35234L8.16126 8.88609C8.16193 8.88663 8.16259 8.88716 8.16326 8.8877M7.78363 9.35234L8.16508 8.8892C8.16447 8.8887 8.16386 8.8882 8.16326 8.8877M8.39291 9.70457C8.6211 9.79203 8.8493 9.87004 9.07749 9.94096M8.39291 9.70457L8.60765 9.14431C8.44846 9.08328 8.29851 8.9969 8.16326 8.8877M8.39291 9.70457L8.60768 9.14432C8.81491 9.22375 9.0232 9.2953 9.2329 9.36093M9.07749 9.94096C9.14139 9.95514 9.19843 9.96933 9.2532 9.98587M9.07749 9.94096L9.20752 9.35522C9.21597 9.35709 9.22443 9.35899 9.2329 9.36093M9.07749 9.94096L9.25556 9.36799C9.248 9.36564 9.24045 9.36329 9.2329 9.36093M9.2532 9.98587C9.28724 9.99571 9.3208 10.0072 9.35376 10.0204V9.65306L9.2532 9.98587ZM9.2532 9.98587L9.35376 9.63779V9.43886L9.40767 9.45119L9.41973 9.40944C9.42093 9.40979 9.42213 9.41014 9.42333 9.41049M9.42333 9.41049C9.42447 9.41083 9.4256 9.41117 9.42674 9.41152L9.4143 9.4527L9.60812 9.49702L9.71105 9.52056M9.42333 9.41049C9.35901 9.39117 9.29574 9.37525 9.2329 9.36093M9.42333 9.41049C9.48879 9.42956 9.553 9.45263 9.61563 9.47954L9.71105 9.52056M9.71105 9.52056L10.0875 9.60663C10.4396 9.68713 10.7731 9.83471 11.0711 10.0409L11.1009 10.0616L11.1281 10.0857C11.2778 10.2187 11.3934 10.3849 11.4672 10.5697L10.9099 10.792L11.4672 10.5697C11.5365 10.7437 11.5674 10.9305 11.5583 11.117C11.5609 11.2966 11.5298 11.4751 11.4665 11.6428V11.6754L11.3954 11.8082C11.3245 11.9405 11.2359 12.0625 11.132 12.1705C11.2193 12.1023 11.301 12.0259 11.3761 11.9421C11.5666 11.7249 11.6827 11.4441 11.7017 11.145C11.6995 10.99 11.6895 10.8353 11.6716 10.6814L11.6714 10.6796C11.656 10.5425 11.6115 10.4119 11.5423 10.2969C11.44 10.1293 11.307 9.98622 11.1523 9.87541M11.1523 9.87541C10.8876 9.69056 10.5933 9.55828 10.2843 9.48436L10.275 9.48214L10.2658 9.47963L10.0186 9.41211M8.25193 6.928C8.10651 7.0523 7.98865 7.21071 7.90881 7.39223C7.82876 7.57421 7.78947 7.77368 7.79468 7.97519L7.79514 7.99284L7.79456 8.01048C7.78837 8.19812 7.82401 8.38403 7.89789 8.55359M7.89789 8.55359C7.96389 8.6843 8.05464 8.79781 8.16326 8.8877M10.843 6.81043C10.7564 6.72582 10.6581 6.65332 10.5505 6.59553C10.5496 6.59501 10.5486 6.59448 10.5476 6.59395C10.5376 6.58863 10.5276 6.58342 10.5174 6.57835C10.3513 6.49516 10.1692 6.44894 9.98327 6.44335V5.9032C10.2412 5.93368 10.4948 5.99561 10.7388 6.08774C10.9787 6.17669 11.2014 6.30961 11.396 6.48015M10.843 6.81043C10.7448 6.74466 10.6398 6.69097 10.5302 6.65034L10.5268 6.64907L10.5268 6.64906C10.5142 6.64431 10.5016 6.63967 10.489 6.63512C10.3236 6.57554 10.1532 6.53297 9.98023 6.50791L9.98099 7.04192L9.98099 7.04277H10.2849H10.5446V7.27521L10.9612 6.94265C10.9625 6.94423 10.9637 6.9458 10.965 6.94738M10.843 6.81043C10.8964 6.84617 10.9478 6.88548 10.9968 6.9282M10.843 6.81043C10.8867 6.85311 10.9275 6.89887 10.965 6.94738M10.965 6.94738C10.9663 6.9491 10.9676 6.95082 10.9689 6.95254L10.5446 7.27697V7.38869C10.6575 7.55818 10.7191 7.75938 10.7205 7.96641V7.38126H11.2115M10.965 6.94738C11.0696 7.07943 11.1523 7.22597 11.2115 7.38126M11.2115 7.38126C11.2841 7.57163 11.3214 7.77516 11.3205 7.98126H11.4596C11.4507 7.77317 11.4032 7.56941 11.3202 7.38126M11.2115 7.38126H11.3202M11.3202 7.38126H11.9597C11.9302 7.28592 11.8943 7.19257 11.8523 7.10187M11.3202 7.38126C11.3162 7.37218 11.3121 7.36314 11.308 7.35414M11.8523 7.10187C11.7425 6.86473 11.5872 6.65321 11.396 6.48015M11.8523 7.10187L11.3079 7.354M11.8523 7.10187L11.308 7.35414M11.396 6.48015L11.0005 6.93139C10.9993 6.93032 10.9981 6.92926 10.9968 6.9282M11.396 6.48015L10.9934 6.92503C10.9945 6.92608 10.9957 6.92714 10.9968 6.9282M10.9968 6.9282C11.1259 7.04588 11.2321 7.19045 11.3079 7.354M11.3079 7.354L11.308 7.35414M11.3079 7.354L11.308 7.35414M8.20853 12.0673C8.33303 12.2046 8.47561 12.3225 8.63161 12.4178C8.45632 12.3356 8.29188 12.2262 8.14433 12.0914C7.98191 11.9237 7.84562 11.6905 7.75319 11.3707H7.83692C7.842 11.389 7.84737 11.4072 7.85302 11.4254C7.92417 11.6537 8.03948 11.8662 8.19309 12.0495L8.20064 12.0586L8.20853 12.0673ZM8.91507 6.58566C9.05572 6.54522 9.19946 6.51778 9.34463 6.50364V7.04277V7.04282L9.05621 7.04323L9.05512 7.04324L8.78099 7.04363L8.78125 7.22474L8.43024 6.79679C8.53511 6.73001 8.64668 6.67573 8.76284 6.63494L8.76284 6.63496L8.76676 6.63355C8.81225 6.61722 8.85813 6.60229 8.90435 6.58877C8.90792 6.58773 8.91149 6.58669 8.91507 6.58566ZM8.37465 11.2629L8.42586 11.2469L8.37465 11.2629Z" stroke-width="1.2"/>
<mask id="path-2-inside-1">
<path d="M17.322 13.4422L15.7588 13.8133C15.7248 13.8179 15.6902 13.8179 15.6561 13.8133C15.5707 13.8136 15.4869 13.789 15.4143 13.7424C15.3122 13.6753 15.24 13.5691 15.2134 13.4469L14.8552 11.8276C14.8417 11.7671 14.8399 11.7044 14.8498 11.6431C14.8597 11.5818 14.8811 11.5232 14.9129 11.4705C14.9447 11.4178 14.9862 11.3721 15.035 11.3361C15.0838 11.3 15.139 11.2742 15.1975 11.2603C15.2559 11.2463 15.3164 11.2444 15.3756 11.2546C15.4347 11.2649 15.4913 11.2871 15.5422 11.32C15.5931 11.353 15.6372 11.396 15.672 11.4465C15.7068 11.4971 15.7317 11.5543 15.7451 11.6148L15.8364 12.0238C16.322 10.6991 16.3978 9.25071 16.0533 7.87938C15.7088 6.50804 14.9611 5.28167 13.9138 4.37021C12.8664 3.45875 11.5714 2.90735 10.208 2.79242C8.84464 2.67748 7.48053 3.00471 6.30471 3.72875L5.83691 2.91792C7.19747 2.07755 8.77986 1.70481 10.3574 1.8531C11.935 2.00138 13.4268 2.66309 14.6191 3.74342C15.8114 4.82376 16.6431 6.26729 16.995 7.86725C17.3469 9.4672 17.2009 11.1415 16.5781 12.6502L17.1189 12.5226C17.1788 12.5038 17.2418 12.498 17.3039 12.5055C17.3661 12.513 17.4261 12.5337 17.4802 12.5663C17.5343 12.5988 17.5814 12.6425 17.6185 12.6947C17.6556 12.7469 17.682 12.8065 17.6959 12.8697C17.7099 12.9329 17.7112 12.9984 17.6996 13.0621C17.6881 13.1258 17.6641 13.1864 17.629 13.2401C17.594 13.2938 17.5486 13.3394 17.4958 13.3742C17.443 13.409 17.3838 13.4321 17.322 13.4422Z"/>
</mask>
<path d="M17.322 13.4422L15.7588 13.8133C15.7248 13.8179 15.6902 13.8179 15.6561 13.8133C15.5707 13.8136 15.4869 13.789 15.4143 13.7424C15.3122 13.6753 15.24 13.5691 15.2134 13.4469L14.8552 11.8276C14.8417 11.7671 14.8399 11.7044 14.8498 11.6431C14.8597 11.5818 14.8811 11.5232 14.9129 11.4705C14.9447 11.4178 14.9862 11.3721 15.035 11.3361C15.0838 11.3 15.139 11.2742 15.1975 11.2603C15.2559 11.2463 15.3164 11.2444 15.3756 11.2546C15.4347 11.2649 15.4913 11.2871 15.5422 11.32C15.5931 11.353 15.6372 11.396 15.672 11.4465C15.7068 11.4971 15.7317 11.5543 15.7451 11.6148L15.8364 12.0238C16.322 10.6991 16.3978 9.25071 16.0533 7.87938C15.7088 6.50804 14.9611 5.28167 13.9138 4.37021C12.8664 3.45875 11.5714 2.90735 10.208 2.79242C8.84464 2.67748 7.48053 3.00471 6.30471 3.72875L5.83691 2.91792C7.19747 2.07755 8.77986 1.70481 10.3574 1.8531C11.935 2.00138 13.4268 2.66309 14.6191 3.74342C15.8114 4.82376 16.6431 6.26729 16.995 7.86725C17.3469 9.4672 17.2009 11.1415 16.5781 12.6502L17.1189 12.5226C17.1788 12.5038 17.2418 12.498 17.3039 12.5055C17.3661 12.513 17.4261 12.5337 17.4802 12.5663C17.5343 12.5988 17.5814 12.6425 17.6185 12.6947C17.6556 12.7469 17.682 12.8065 17.6959 12.8697C17.7099 12.9329 17.7112 12.9984 17.6996 13.0621C17.6881 13.1258 17.6641 13.1864 17.629 13.2401C17.594 13.2938 17.5486 13.3394 17.4958 13.3742C17.443 13.409 17.3838 13.4321 17.322 13.4422Z" />
<path d="M15.7588 13.8133L15.9204 15.0024L15.9788 14.9944L16.036 14.9808L15.7588 13.8133ZM15.6561 13.8133L15.8177 12.6242L15.7353 12.613L15.6522 12.6133L15.6561 13.8133ZM15.4143 13.7424L14.7553 14.7453L14.7659 14.7522L15.4143 13.7424ZM15.2134 13.4469L16.3861 13.1923L16.3851 13.1877L15.2134 13.4469ZM14.8552 11.8276L16.0268 11.5684L16.0265 11.5667L14.8552 11.8276ZM15.7451 11.6148L14.5739 11.8758L14.574 11.8762L15.7451 11.6148ZM15.8364 12.0238L14.6652 12.2852L15.5559 16.2757L16.9631 12.4368L15.8364 12.0238ZM6.30471 3.72875L5.2653 4.32843L5.88241 5.39806L6.93392 4.75056L6.30471 3.72875ZM5.83691 2.91792L5.20631 1.89698L4.21556 2.50893L4.7975 3.5176L5.83691 2.91792ZM16.5781 12.6502L15.4689 12.1923L14.5757 14.3559L16.8537 13.8182L16.5781 12.6502ZM17.1189 12.5226L17.3945 13.6905L17.4366 13.6806L17.4778 13.6677L17.1189 12.5226ZM17.0448 12.2746L15.4816 12.6458L16.036 14.9808L17.5992 14.6097L17.0448 12.2746ZM15.5973 12.6242C15.6704 12.6143 15.7446 12.6143 15.8177 12.6242L15.4946 15.0024C15.6359 15.0216 15.7791 15.0216 15.9204 15.0024L15.5973 12.6242ZM15.6522 12.6133C15.8004 12.6128 15.9427 12.6556 16.0626 12.7326L14.7659 14.7522C15.0311 14.9224 15.341 15.0144 15.6601 15.0133L15.6522 12.6133ZM16.0732 12.7395C16.2406 12.8495 16.3477 13.0154 16.3861 13.1923L14.0408 13.7015C14.1322 14.1227 14.3838 14.5012 14.7553 14.7453L16.0732 12.7395ZM16.3851 13.1877L16.0268 11.5684L13.6835 12.0868L14.0418 13.7061L16.3851 13.1877ZM16.0265 11.5667C16.0461 11.6548 16.0487 11.7457 16.0344 11.8346L13.6651 11.4516C13.631 11.6631 13.6373 11.8793 13.6839 12.0885L16.0265 11.5667ZM16.0344 11.8346C16.02 11.9235 15.9886 12.0105 15.9404 12.0904L13.8854 10.8506C13.7736 11.0359 13.6993 11.2402 13.6651 11.4516L16.0344 11.8346ZM15.9404 12.0904C15.8921 12.1704 15.8274 12.2426 15.7481 12.3012L14.322 10.3709C14.145 10.5016 13.9973 10.6652 13.8854 10.8506L15.9404 12.0904ZM15.7481 12.3012C15.6686 12.3599 15.5765 12.4035 15.4765 12.4274L14.9185 10.0931C14.7016 10.145 14.499 10.2401 14.322 10.3709L15.7481 12.3012ZM15.4765 12.4274C15.3764 12.4513 15.2722 12.4546 15.1705 12.437L15.5807 10.0723C15.3606 10.0341 15.1354 10.0413 14.9185 10.0931L15.4765 12.4274ZM15.1705 12.437C15.0688 12.4193 14.9736 12.3815 14.89 12.3274L16.1944 10.3127C16.0091 10.1928 15.8006 10.1104 15.5807 10.0723L15.1705 12.437ZM14.89 12.3274C14.8066 12.2733 14.737 12.2046 14.6835 12.127L16.6604 10.7661C16.5373 10.5873 16.3795 10.4326 16.1944 10.3127L14.89 12.3274ZM14.6835 12.127C14.6302 12.0495 14.5935 11.964 14.5739 11.8758L16.9164 11.3539C16.8698 11.1446 16.7834 10.9448 16.6604 10.7661L14.6835 12.127ZM14.574 11.8762L14.6652 12.2852L17.0076 11.7624L16.9163 11.3534L14.574 11.8762ZM16.9631 12.4368C17.5318 10.8855 17.6202 9.19134 17.2172 7.58701L14.8895 8.17174C15.1755 9.31009 15.1123 10.5127 14.7097 11.6108L16.9631 12.4368ZM17.2172 7.58701C16.8141 5.98243 15.9376 4.54063 14.7016 3.46499L13.126 5.27543C13.9847 6.02271 14.6036 7.03365 14.8895 8.17174L17.2172 7.58701ZM14.7016 3.46499C13.465 2.38883 11.9302 1.73334 10.3088 1.59666L10.1072 3.98817C11.2125 4.08135 12.2679 4.52867 13.126 5.27543L14.7016 3.46499ZM10.3088 1.59666C8.68723 1.45996 7.06763 1.84971 5.67551 2.70694L6.93392 4.75056C7.89344 4.15972 9.00205 3.89501 10.1072 3.98817L10.3088 1.59666ZM7.34413 3.12907L6.87633 2.31824L4.7975 3.5176L5.2653 4.32843L7.34413 3.12907ZM6.46752 3.93887C7.60816 3.23433 8.9301 2.92422 10.2451 3.04783L10.4697 0.658363C8.62963 0.485399 6.78678 0.920767 5.20631 1.89698L6.46752 3.93887ZM10.2451 3.04783C11.5604 3.17146 12.8099 3.7235 13.8134 4.63268L15.4248 2.85416C14.0436 1.60268 12.3096 0.831308 10.4697 0.658363L10.2451 3.04783ZM13.8134 4.63268C14.8174 5.54244 15.5236 6.76375 15.823 8.12501L18.167 7.60948C17.7626 5.77084 16.8054 4.10508 15.4248 2.85416L13.8134 4.63268ZM15.823 8.12501C16.1224 9.48652 15.9978 10.911 15.4689 12.1923L17.6873 13.1082C18.404 11.372 18.5713 9.44788 18.167 7.60948L15.823 8.12501ZM16.8537 13.8182L17.3945 13.6905L16.8432 11.3547L16.3024 11.4823L16.8537 13.8182ZM17.4778 13.6677C17.3757 13.6997 17.2673 13.7098 17.16 13.6969L17.4479 11.3142C17.2163 11.2862 16.9819 11.308 16.76 11.3775L17.4778 13.6677ZM17.16 13.6969C17.0527 13.6839 16.9512 13.6484 16.8617 13.5946L18.0987 11.5379C17.901 11.419 17.6794 11.3422 17.4479 11.3142L17.16 13.6969ZM16.8617 13.5946C16.7723 13.5408 16.6977 13.4705 16.6405 13.3901L18.5965 11.9994C18.4651 11.8146 18.2963 11.6568 18.0987 11.5379L16.8617 13.5946ZM16.6405 13.3901C16.5834 13.3098 16.5445 13.2206 16.5242 13.1285L18.8677 12.6109C18.8194 12.3924 18.7278 12.1841 18.5965 11.9994L16.6405 13.3901ZM16.5242 13.1285C16.5038 13.0364 16.502 12.9414 16.5188 12.8488L18.8805 13.2754C18.9203 13.0554 18.916 12.8294 18.8677 12.6109L16.5242 13.1285ZM16.5188 12.8488C16.5355 12.7561 16.5708 12.6658 16.6244 12.5838L18.6337 13.8964C18.7574 13.707 18.8408 13.4955 18.8805 13.2754L16.5188 12.8488ZM16.6244 12.5838C16.678 12.5017 16.7494 12.4288 16.8361 12.3718L18.1555 14.3766C18.3478 14.25 18.5099 14.0859 18.6337 13.8964L16.6244 12.5838ZM16.8361 12.3718C16.9229 12.3147 17.0225 12.2751 17.129 12.2578L17.515 14.6265C17.7451 14.589 17.963 14.5033 18.1555 14.3766L16.8361 12.3718Z" mask="url(#path-2-inside-1)"/>
<path d="M2.16023 6.31297C2.16012 6.31299 2.16001 6.31302 2.1599 6.31305L2.16023 6.31297Z" stroke-width="1.2"/>
    </g>
</svg>
