<svg width="40" height="40" viewBox="0 0 40 40" fill="none" xmlns="http://www.w3.org/2000/svg">
<path d="M33.5917 17.8568V16.4318C33.5917 15.0648 32.3379 13.9528 30.7941 13.9528H16.1535C15.903 13.9528 15.7032 14.1308 15.7032 14.3518V17.8158H14.156C14.771 17.2948 15.157 16.5638 15.157 15.7528C15.157 14.1748 13.7091 12.8908 11.9282 12.8908C10.1474 12.8908 8.69948 14.1748 8.69948 15.7528C8.69948 16.5638 9.08544 17.2938 9.70049 17.8158H8.2537V13.3638C8.2537 12.4548 7.41971 11.7168 6.39499 11.7168C5.37028 11.7168 4.53516 12.4548 4.53516 13.3638V25.2828C4.53516 26.1918 5.37028 26.9308 6.39499 26.9308C7.41971 26.9308 8.2537 26.1918 8.2537 25.2828V23.7428H31.7499V25.2828C31.7499 26.1918 32.5839 26.9308 33.6087 26.9308C34.6334 26.9308 35.4685 26.1918 35.4685 25.2828V19.8798C35.4696 18.8798 34.6605 18.0438 33.5917 17.8568ZM16.6038 14.7528H30.7941C31.8391 14.7528 32.6889 15.5068 32.6889 16.4328V17.8178H16.6038V14.7528ZM9.59892 15.7548C9.59892 14.6178 10.644 13.6918 11.9271 13.6918C13.2103 13.6918 14.2542 14.6178 14.2542 15.7548C14.2542 16.8918 13.2103 17.8178 11.9271 17.8178C10.644 17.8178 9.59892 16.8918 9.59892 15.7548ZM34.5657 25.2838C34.5657 25.7518 34.1357 26.1318 33.6087 26.1318C33.0816 26.1318 32.6516 25.7518 32.6516 25.2838V23.3448C32.6516 23.1228 32.4496 22.9448 32.2002 22.9448H7.80228C7.55175 22.9448 7.35087 23.1238 7.35087 23.3448V25.2838C7.35087 25.7518 6.92089 26.1318 6.39386 26.1318C5.86684 26.1318 5.43686 25.7518 5.43686 25.2838V13.3648C5.43686 12.8968 5.86684 12.5168 6.39386 12.5168C6.92089 12.5168 7.35087 12.8968 7.35087 13.3648V18.2168C7.35087 18.4388 7.55288 18.6158 7.80228 18.6158H33.1392C33.9258 18.6158 34.5657 19.1818 34.5657 19.8798V25.2838Z" fill="currentColor" stroke="currentColor" stroke-width="0.3"/>
</svg>
