<svg width="20" height="20" viewBox="0 0 20 20" fill="none" xmlns="http://www.w3.org/2000/svg">
    <g stroke="currentColor"  stroke-width="1.7" stroke-linecap="round" stroke-linejoin="round">

<path d="M13.333 15.8337V14.4448C13.333 13.7081 13.0696 13.0015 12.6008 12.4806C12.1319 11.9597 11.496 11.667 10.833 11.667H5.83301C5.16997 11.667 4.53408 11.9597 4.06524 12.4806C3.5964 13.0015 3.33301 13.7081 3.33301 14.4448V15.8337"/>
<path d="M8.33301 9.16699C9.71372 9.16699 10.833 8.0477 10.833 6.66699C10.833 5.28628 9.71372 4.16699 8.33301 4.16699C6.9523 4.16699 5.83301 5.28628 5.83301 6.66699C5.83301 8.0477 6.9523 9.16699 8.33301 9.16699Z"/>
<path d="M17.4997 15.8337V14.414C17.4993 13.7849 17.3354 13.1738 17.0338 12.6766C16.7321 12.1794 16.3097 11.8243 15.833 11.667" />
<path d="M13.333 4.16699C13.8098 4.30912 14.2323 4.63196 14.5341 5.08461C14.8359 5.53726 14.9997 6.09398 14.9997 6.66699C14.9997 7.24001 14.8359 7.79672 14.5341 8.24937C14.2323 8.70202 13.8098 9.02486 13.333 9.16699" />
    </g>
</svg>
