<svg width="22" height="20" viewBox="0 0 22 20" fill="none" xmlns="http://www.w3.org/2000/svg">
    <g fill="currentColor">
<path d="M11 7.87891C13.0646 7.87891 14.7383 6.20522 14.7383 4.14063C14.7383 2.07603 13.0646 0.402344 11 0.402344C8.9354 0.402344 7.26172 2.07603 7.26172 4.14063C7.26172 6.20522 8.9354 7.87891 11 7.87891Z"/>
<path d="M18.5625 7.87891C19.8677 7.87891 20.9258 6.82083 20.9258 5.51563C20.9258 4.21042 19.8677 3.15234 18.5625 3.15234C17.2573 3.15234 16.1992 4.21042 16.1992 5.51563C16.1992 6.82083 17.2573 7.87891 18.5625 7.87891Z"/>
<path d="M3.4375 7.87891C4.7427 7.87891 5.80078 6.82083 5.80078 5.51563C5.80078 4.21042 4.7427 3.15234 3.4375 3.15234C2.1323 3.15234 1.07422 4.21042 1.07422 5.51563C1.07422 6.82083 2.1323 7.87891 3.4375 7.87891Z"/>
<path d="M5.76598 10.0016C4.8357 9.23947 3.99321 9.34036 2.91758 9.34036C1.30883 9.34036 0 10.6415 0 12.2403V16.9329C0 17.6273 0.566758 18.1919 1.26371 18.1919C4.27264 18.1919 3.91016 18.2464 3.91016 18.0621C3.91016 14.737 3.5163 12.2985 5.76598 10.0016Z"/>
<path d="M12.023 9.35734C10.1442 9.20064 8.51117 9.35915 7.10262 10.5218C4.74548 12.4098 5.1991 14.952 5.1991 18.0619C5.1991 18.8848 5.86855 19.5667 6.70387 19.5667C15.7738 19.5667 16.1348 19.8593 16.6726 18.6682C16.849 18.2654 16.8007 18.3935 16.8007 14.5402C16.8007 11.4797 14.1507 9.35734 12.023 9.35734Z"/>
<path d="M19.0825 9.33928C18.001 9.33928 17.1632 9.23942 16.2341 10.0006C18.467 12.2803 18.0899 14.5525 18.0899 18.0611C18.0899 18.2464 17.789 18.1908 20.6913 18.1908C21.4132 18.1908 22.0001 17.606 22.0001 16.8872V12.2392C22.0001 10.6404 20.6913 9.33928 19.0825 9.33928Z"/>
    </g>
</svg>
