<svg width="36" height="36" viewBox="0 0 36 36" fill="none" xmlns="http://www.w3.org/2000/svg">
<path d="M19.0932 4.35349L19.0934 4.35351C22.0865 4.72293 23.3451 7.31681 24.0952 9.46045L24.9438 11.8859L29.1811 20.45C29.1812 20.4502 29.1813 20.4504 29.1814 20.4506C30.215 22.4876 30.8359 24.6999 31.0101 26.9663L31.0102 26.9677C31.1125 28.4794 30.8643 29.6135 30.2252 30.2927L30.2248 30.2931C30.0232 30.5055 29.7784 30.674 29.5062 30.788C29.2349 30.9017 28.9422 30.9587 28.6471 30.9555C25.8281 31.0147 20.5836 30.0769 19.6162 29.8992C17.0988 31.0219 14.3679 31.618 11.5995 31.649C11.5995 31.649 11.5994 31.649 11.5994 31.649L11.5977 31.499C9.13776 31.5275 6.71347 30.9242 4.56883 29.7497L19.0932 4.35349ZM19.0932 4.35349C19.0405 4.34705 18.987 4.34954 18.9351 4.36087L18.9345 4.36098M19.0932 4.35349L18.9345 4.36098M13.9689 6.88422C13.9764 6.86762 13.9852 6.85165 13.9954 6.8365C14.9678 5.4055 18.8041 4.54358 18.967 4.50742C19.0025 4.49969 19.039 4.49798 19.075 4.50238C21.9711 4.85983 23.2034 7.36615 23.9536 9.50999L24.8053 11.9442L29.0473 20.5179C30.0722 22.5376 30.6879 24.731 30.8605 26.9778L13.9689 6.88422ZM13.9689 6.88422C13.8165 7.22982 12.5096 10.3017 13.551 11.7004L13.9689 6.88422ZM18.9345 4.36098C18.8506 4.37961 17.8436 4.60577 16.7337 5.00787C16.1788 5.20888 15.5945 5.45519 15.0856 5.74345C14.5796 6.03005 14.1337 6.36604 13.8713 6.7522L13.8709 6.75282M18.9345 4.36098L13.8709 6.75282M13.8709 6.75282C13.856 6.77504 13.843 6.79849 13.832 6.82293L13.8317 6.8237M13.8709 6.75282L13.8317 6.8237M13.8317 6.8237C13.7539 7.00004 13.3845 7.86498 13.1657 8.86534C13.0564 9.36549 12.9833 9.90527 13.0056 10.413C13.0279 10.9196 13.1457 11.4073 13.4307 11.7899L13.6887 12.1367L13.6887 12.1367M13.8317 6.8237L13.6887 12.1367M13.6887 12.1367L13.6898 12.1381M13.6887 12.1367L13.6898 12.1381M13.6898 12.1381C14.1233 12.7071 14.6886 13.1677 15.3391 13.4826C15.9895 13.7974 16.7069 13.9577 17.4327 13.9506M13.6898 12.1381L17.9956 13.919M17.9956 13.919L17.9939 13.9192C17.8076 13.9401 17.6202 13.9506 17.4327 13.9506M17.9956 13.919C18.2166 13.8916 18.4296 13.8199 18.6211 13.7082C18.8124 13.5966 18.9782 13.4474 19.1079 13.2698M17.9956 13.919L19.1079 13.2698M17.4327 13.9506C17.4325 13.9506 17.4322 13.9506 17.4319 13.9506L17.4319 13.8006L17.4334 13.9506C17.4332 13.9506 17.4329 13.9506 17.4327 13.9506ZM19.1079 13.2698C19.108 13.2696 19.1081 13.2695 19.1083 13.2693L19.2642 13.0592C19.6499 14.8189 20.4694 18.4153 21.3413 21.3708C20.6214 21.3437 19.4585 21.3943 18.5259 21.891C17.2028 21.0458 10.9583 17.5458 4.4571 22.0595M19.1079 13.2698L18.7718 22.8043C18.6922 22.858 18.5976 22.8856 18.5015 22.8836C18.4054 22.8815 18.312 22.8499 18.2347 22.7928C18.1073 22.6993 16.4783 21.5304 14.0398 20.9707C11.6037 20.4116 8.36057 20.46 4.98957 22.8003L4.98954 22.8003C4.9402 22.8346 4.88462 22.8589 4.82601 22.872C4.7674 22.8852 4.70675 22.8869 4.64747 22.8772L4.64747 22.8772C4.58819 22.8675 4.53128 22.8465 4.48 22.8152C4.42871 22.784 4.38399 22.743 4.34854 22.6945M4.4571 22.0595C4.4571 22.0595 4.45711 22.0595 4.45712 22.0595L4.54264 22.1827L4.4571 22.0595ZM4.4571 22.0595C4.40776 22.0937 4.36556 22.1373 4.3331 22.1878L4.3331 22.1878C4.30063 22.2384 4.27857 22.2949 4.26836 22.3541C4.25814 22.4133 4.26 22.474 4.27382 22.5324C4.28763 22.5909 4.31308 22.646 4.34854 22.6945M4.34854 22.6945L4.46964 22.606M4.34854 22.6945L4.46964 22.606M4.46964 22.606L4.34854 22.6945L4.46964 22.606ZM4.46964 22.606C4.49336 22.6384 4.52342 22.666 4.5581 22.6872C4.59277 22.7083 4.63137 22.7226 4.67171 22.7292C4.71205 22.7358 4.75333 22.7346 4.79319 22.7257C4.83305 22.7167 4.87071 22.7002 4.90403 22.6771L4.46964 22.606ZM23.0443 25.6997L23.0441 25.6994C22.814 25.3963 22.5747 24.9126 22.333 24.3165C22.1 23.7415 21.8607 23.0515 21.6229 22.2968C21.344 22.2747 20.8883 22.2555 20.3915 22.3037C19.8279 22.3584 19.2281 22.4983 18.7722 22.804L23.0443 25.6997ZM23.0443 25.6997C23.1177 25.796 23.2266 25.8591 23.3464 25.8764C23.4661 25.8938 23.5884 25.8643 23.6866 25.7935C23.7849 25.7226 23.8514 25.6159 23.87 25.4959C23.8886 25.3759 23.8574 25.2541 23.7842 25.1573L23.7841 25.1571M23.0443 25.6997L23.7841 25.1571M23.7841 25.1571C23.5905 24.902 23.3711 24.4559 23.1368 23.8638M23.7841 25.1571L23.1368 23.8638M23.1368 23.8638C22.904 23.2756 22.6612 22.5555 22.4178 21.7616L23.1368 23.8638ZM19.6402 28.9808C19.5386 28.9613 19.4331 28.9761 19.341 29.0233L22.4176 21.7611L22.4159 21.7553L22.4157 21.7548C21.1853 17.7399 19.9565 11.8951 19.9393 11.8126L19.9392 11.8123C19.937 11.8017 19.934 11.7927 19.9312 11.7856C19.8889 11.5827 19.7611 11.3932 19.5675 11.2108C19.3674 11.0224 19.0864 10.8315 18.7239 10.6315L18.6514 10.7629L18.7239 10.6315C18.6713 10.6025 18.6135 10.584 18.5539 10.5768C18.4942 10.5696 18.4337 10.574 18.3757 10.5896C18.3177 10.6053 18.2633 10.632 18.2154 10.6683C18.1676 10.7047 18.1274 10.7501 18.0972 10.802L18.2269 10.8774L18.0972 10.802C18.067 10.854 18.0475 10.9114 18.04 10.971L18.1888 10.9899L18.04 10.971C18.0325 11.0307 18.0371 11.0911 18.0535 11.149C18.0699 11.2068 18.0978 11.2606 18.1354 11.3075L18.2524 11.2137L18.1354 11.3075C18.1729 11.3544 18.2194 11.3933 18.272 11.4224L18.2782 11.4258L18.2847 11.4286C18.5466 11.5423 18.7802 11.7082 18.9709 11.9147L18.3617 12.7358L18.3616 12.7358L18.3603 12.7376C18.3059 12.8134 18.2357 12.8776 18.1541 12.926C18.0725 12.9744 17.9814 13.0059 17.8864 13.0184C17.2329 13.1005 16.5688 13.0123 15.9619 12.7628C15.3553 12.5135 14.8279 12.1122 14.433 11.6003L14.1756 11.2545L14.1756 11.2545C14.0258 11.0533 13.9477 10.7624 13.9304 10.4075C13.9132 10.0547 13.9567 9.65462 14.0348 9.25039C14.1892 8.45108 14.4743 7.65737 14.6612 7.22435C14.8209 7.00609 15.0992 6.78714 15.4589 6.57635C15.8227 6.3632 16.2571 6.16562 16.7066 5.9898C17.591 5.64394 18.521 5.3873 19.0575 5.26383C21.4427 5.60048 22.4951 7.67686 23.2225 9.75517L24.0807 12.2081C24.0841 12.2177 24.088 12.2259 24.0916 12.2326C24.0938 12.2402 24.0971 12.2492 24.1019 12.259L24.102 12.2592L28.3516 20.8482L28.3524 20.8496C29.3335 22.7815 29.9231 24.8793 30.0891 27.0284C30.1771 28.3284 29.9711 29.2261 29.5479 29.6765C29.4323 29.7974 29.2914 29.8932 29.1345 29.9574C28.9773 30.0217 28.8078 30.0528 28.6371 30.0485L28.6371 30.0483L28.6299 30.0485C27.162 30.0818 24.9333 29.819 23.0555 29.5443C21.2008 29.2731 19.701 28.9922 19.6412 28.981L19.6407 28.9809C19.6406 28.9809 19.6404 28.9808 19.6402 28.9808Z" fill="currentColor" stroke="currentColor" stroke-width="0.3"/>
</svg>
